<svg xmlns="http://www.w3.org/2000/svg" xmlns:xlink="http://www.w3.org/1999/xlink" width="500" zoomAndPan="magnify" viewBox="0 0 375 374.999991" height="500" preserveAspectRatio="xMidYMid meet" version="1.0"><defs><g/><clipPath id="e084fafb70"><path d="M 46.429688 160 L 85.429688 160 L 85.429688 216 L 46.429688 216 Z M 46.429688 160 " clip-rule="nonzero"/></clipPath><clipPath id="58ac309acb"><path d="M 125.011719 158.445312 L 163.699219 158.445312 L 163.699219 214.695312 L 125.011719 214.695312 Z M 125.011719 158.445312 " clip-rule="nonzero"/></clipPath><clipPath id="14c018e6da"><path d="M 101 149 L 123 149 L 123 172 L 101 172 Z M 101 149 " clip-rule="nonzero"/></clipPath><clipPath id="f0eac58b74"><path d="M 60.480469 179.105469 L 114.796875 141.613281 L 152.289062 195.929688 L 97.972656 233.421875 Z M 60.480469 179.105469 " clip-rule="nonzero"/></clipPath><clipPath id="2b68bfd275"><path d="M 60.480469 179.105469 L 114.796875 141.613281 L 152.289062 195.929688 L 97.972656 233.421875 Z M 60.480469 179.105469 " clip-rule="nonzero"/></clipPath><clipPath id="7dc0adbf55"><path d="M 89 182 L 116 182 L 116 228 L 89 228 Z M 89 182 " clip-rule="nonzero"/></clipPath><clipPath id="f26e711023"><path d="M 60.480469 179.105469 L 114.796875 141.613281 L 152.289062 195.929688 L 97.972656 233.421875 Z M 60.480469 179.105469 " clip-rule="nonzero"/></clipPath><clipPath id="ef79ec44ed"><path d="M 60.480469 179.105469 L 114.796875 141.613281 L 152.289062 195.929688 L 97.972656 233.421875 Z M 60.480469 179.105469 " clip-rule="nonzero"/></clipPath><clipPath id="a87f56703e"><path d="M 98 178 L 116 178 L 116 185 L 98 185 Z M 98 178 " clip-rule="nonzero"/></clipPath><clipPath id="4ea452eb5a"><path d="M 60.480469 179.105469 L 114.796875 141.613281 L 152.289062 195.929688 L 97.972656 233.421875 Z M 60.480469 179.105469 " clip-rule="nonzero"/></clipPath><clipPath id="01bc41f7f8"><path d="M 60.480469 179.105469 L 114.796875 141.613281 L 152.289062 195.929688 L 97.972656 233.421875 Z M 60.480469 179.105469 " clip-rule="nonzero"/></clipPath><clipPath id="00090156dd"><path d="M 99 174 L 117 174 L 117 181 L 99 181 Z M 99 174 " clip-rule="nonzero"/></clipPath><clipPath id="07e431f882"><path d="M 60.480469 179.105469 L 114.796875 141.613281 L 152.289062 195.929688 L 97.972656 233.421875 Z M 60.480469 179.105469 " clip-rule="nonzero"/></clipPath><clipPath id="86e08ba828"><path d="M 60.480469 179.105469 L 114.796875 141.613281 L 152.289062 195.929688 L 97.972656 233.421875 Z M 60.480469 179.105469 " clip-rule="nonzero"/></clipPath><clipPath id="0a2e9284f8"><path d="M 100 170 L 118 170 L 118 177 L 100 177 Z M 100 170 " clip-rule="nonzero"/></clipPath><clipPath id="a867dc6cae"><path d="M 60.480469 179.105469 L 114.796875 141.613281 L 152.289062 195.929688 L 97.972656 233.421875 Z M 60.480469 179.105469 " clip-rule="nonzero"/></clipPath><clipPath id="8bca088a23"><path d="M 60.480469 179.105469 L 114.796875 141.613281 L 152.289062 195.929688 L 97.972656 233.421875 Z M 60.480469 179.105469 " clip-rule="nonzero"/></clipPath></defs><rect x="-37.5" width="450" fill="#ffffff" y="-37.499999" height="449.999989" fill-opacity="1"/><rect x="-37.5" width="450" fill="#000000" y="-37.499999" height="449.999989" fill-opacity="1"/><g clip-path="url(#e084fafb70)"><path fill="#ffffff" d="M 77.59375 167.757812 L 57.308594 188.046875 L 77.59375 208.332031 C 79.304688 210.046875 79.304688 212.820312 77.59375 214.535156 C 76.738281 215.390625 75.613281 215.816406 74.492188 215.816406 C 73.371094 215.816406 72.25 215.390625 71.394531 214.535156 L 48.007812 191.148438 C 46.292969 189.433594 46.292969 186.660156 48.007812 184.945312 L 71.394531 161.558594 C 73.105469 159.847656 75.878906 159.847656 77.59375 161.558594 C 79.304688 163.273438 79.304688 166.046875 77.59375 167.757812 Z M 124.367188 161.558594 C 122.65625 159.847656 119.878906 159.847656 118.167969 161.558594 C 116.453125 163.273438 116.453125 166.046875 118.167969 167.757812 L 138.453125 188.046875 L 118.167969 208.332031 C 116.453125 210.046875 116.453125 212.820312 118.167969 214.535156 C 119.023438 215.390625 120.144531 215.816406 121.265625 215.816406 C 122.390625 215.816406 123.511719 215.390625 124.367188 214.535156 L 147.753906 191.148438 C 149.46875 189.433594 149.46875 186.660156 147.753906 184.945312 Z M 124.367188 161.558594 " fill-opacity="1" fill-rule="nonzero"/></g><g clip-path="url(#58ac309acb)"><path fill="#ffffff" d="M 92.113281 166.257812 L 71.828125 186.546875 L 92.113281 206.832031 C 93.824219 208.546875 93.824219 211.320312 92.113281 213.035156 C 91.257812 213.890625 90.136719 214.316406 89.011719 214.316406 C 87.890625 214.316406 86.769531 213.890625 85.914062 213.035156 L 62.527344 189.648438 C 60.8125 187.933594 60.8125 185.160156 62.527344 183.445312 L 85.914062 160.058594 C 87.625 158.347656 90.402344 158.347656 92.113281 160.058594 C 93.828125 161.773438 93.828125 164.546875 92.113281 166.257812 Z M 138.886719 160.058594 C 137.175781 158.347656 134.398438 158.347656 132.6875 160.058594 C 130.972656 161.773438 130.972656 164.546875 132.6875 166.257812 L 152.972656 186.546875 L 132.6875 206.832031 C 130.972656 208.546875 130.972656 211.320312 132.6875 213.035156 C 133.542969 213.890625 134.664062 214.316406 135.785156 214.316406 C 136.910156 214.316406 138.03125 213.890625 138.886719 213.035156 L 162.273438 189.648438 C 163.988281 187.933594 163.988281 185.160156 162.273438 183.445312 Z M 138.886719 160.058594 " fill-opacity="1" fill-rule="nonzero"/></g><g clip-path="url(#14c018e6da)"><g clip-path="url(#f0eac58b74)"><g clip-path="url(#2b68bfd275)"><path fill="#ffffff" d="M 121.417969 152.191406 L 104.660156 149.117188 C 103.882812 148.976562 103.136719 149.492188 102.996094 150.269531 C 102.855469 151.039062 103.355469 151.773438 104.117188 151.929688 L 103.363281 156.050781 C 103.222656 156.828125 103.738281 157.574219 104.515625 157.714844 L 107.339844 158.234375 L 105.722656 167.054688 L 102.898438 166.535156 C 102.121094 166.394531 101.375 166.910156 101.230469 167.6875 C 101.089844 168.464844 101.605469 169.210938 102.382812 169.351562 L 116.375 171.917969 C 116.761719 171.988281 117.144531 171.894531 117.445312 171.6875 C 117.746094 171.480469 117.96875 171.15625 118.039062 170.765625 C 118.183594 169.988281 117.667969 169.242188 116.890625 169.101562 L 114.066406 168.582031 L 115.683594 159.761719 L 118.507812 160.28125 C 118.894531 160.351562 119.277344 160.257812 119.578125 160.050781 C 119.878906 159.84375 120.101562 159.519531 120.171875 159.128906 L 120.929688 155.011719 C 121.308594 155.070312 121.679688 154.980469 121.972656 154.777344 C 122.273438 154.566406 122.496094 154.246094 122.566406 153.855469 C 122.710938 153.078125 122.195312 152.332031 121.417969 152.191406 Z M 111.25 168.066406 L 108.539062 167.570312 L 110.15625 158.75 L 112.867188 159.246094 Z M 117.613281 157.207031 L 106.4375 155.15625 L 106.933594 152.445312 L 118.113281 154.496094 Z M 117.613281 157.207031 " fill-opacity="1" fill-rule="nonzero"/></g></g></g><g clip-path="url(#7dc0adbf55)"><g clip-path="url(#f26e711023)"><g clip-path="url(#ef79ec44ed)"><path fill="#ffffff" d="M 99.859375 183.117188 L 95.4375 182.308594 C 94.660156 182.164062 93.914062 182.679688 93.769531 183.457031 L 91.320312 196.820312 C 91.253906 197.195312 91.335938 197.578125 91.550781 197.890625 C 91.765625 198.203125 92.097656 198.417969 92.472656 198.488281 L 95.484375 199.039062 L 93.550781 209.585938 L 92.195312 209.335938 C 91.824219 209.265625 91.4375 209.351562 91.125 209.566406 C 90.8125 209.78125 90.597656 210.113281 90.53125 210.484375 L 89.128906 218.125 C 88.988281 218.902344 89.503906 219.648438 90.28125 219.792969 L 91.636719 220.039062 L 91.132812 222.777344 C 90.992188 223.554688 91.507812 224.300781 92.285156 224.445312 L 106.277344 227.007812 C 106.652344 227.078125 107.035156 226.996094 107.347656 226.777344 C 107.660156 226.5625 107.875 226.230469 107.945312 225.859375 L 108.445312 223.121094 L 109.800781 223.371094 C 110.191406 223.441406 110.570312 223.347656 110.871094 223.140625 C 111.175781 222.933594 111.394531 222.609375 111.46875 222.21875 L 112.867188 214.578125 C 113.011719 213.800781 112.496094 213.054688 111.71875 212.914062 L 110.363281 212.664062 L 115 187.347656 C 115.070312 186.976562 114.988281 186.589844 114.773438 186.277344 C 114.554688 185.964844 114.226562 185.75 113.851562 185.683594 Z M 94.394531 195.929688 L 96.328125 185.382812 L 97.933594 185.675781 L 96 196.222656 Z M 103.285156 214.277344 L 102.402344 219.101562 L 98.710938 218.425781 L 99.597656 213.601562 Z M 93.089844 212.410156 L 96.78125 213.085938 L 95.894531 217.910156 L 93.5625 217.480469 C 93.5625 217.480469 93.558594 217.480469 93.558594 217.480469 L 92.207031 217.234375 Z M 105.386719 223.933594 L 94.210938 221.886719 L 94.453125 220.558594 L 105.628906 222.605469 Z M 108.910156 220.292969 L 105.21875 219.617188 L 106.101562 214.796875 L 109.792969 215.472656 Z M 107.546875 212.148438 L 105.210938 211.722656 C 105.210938 211.722656 105.210938 211.71875 105.210938 211.71875 L 98.703125 210.527344 L 96.371094 210.101562 L 98.558594 198.148438 C 98.558594 198.144531 98.558594 198.144531 98.558594 198.144531 L 100.75 186.191406 L 111.925781 188.242188 Z M 107.546875 212.148438 " fill-opacity="1" fill-rule="nonzero"/></g></g></g><g clip-path="url(#a87f56703e)"><g clip-path="url(#4ea452eb5a)"><g clip-path="url(#01bc41f7f8)"><path fill="#ffffff" d="M 100.617188 178.972656 C 99.839844 178.832031 99.09375 179.34375 98.953125 180.121094 C 98.808594 180.902344 99.324219 181.648438 100.101562 181.789062 L 114.09375 184.355469 C 114.484375 184.425781 114.863281 184.332031 115.167969 184.125 C 115.46875 183.914062 115.691406 183.59375 115.761719 183.203125 C 115.902344 182.425781 115.390625 181.679688 114.609375 181.539062 Z M 100.617188 178.972656 " fill-opacity="1" fill-rule="nonzero"/></g></g></g><g clip-path="url(#00090156dd)"><g clip-path="url(#07e431f882)"><g clip-path="url(#86e08ba828)"><path fill="#ffffff" d="M 101.378906 174.828125 C 100.601562 174.683594 99.855469 175.199219 99.710938 175.976562 C 99.570312 176.753906 100.085938 177.5 100.863281 177.644531 L 114.855469 180.207031 C 115.242188 180.28125 115.625 180.1875 115.925781 179.976562 C 116.226562 179.769531 116.449219 179.445312 116.519531 179.058594 C 116.664062 178.28125 116.148438 177.535156 115.371094 177.390625 Z M 101.378906 174.828125 " fill-opacity="1" fill-rule="nonzero"/></g></g></g><g clip-path="url(#0a2e9284f8)"><g clip-path="url(#a867dc6cae)"><g clip-path="url(#8bca088a23)"><path fill="#ffffff" d="M 102.136719 170.683594 C 101.359375 170.539062 100.613281 171.054688 100.472656 171.832031 C 100.328125 172.609375 100.84375 173.355469 101.621094 173.5 L 115.613281 176.0625 C 116.003906 176.132812 116.382812 176.042969 116.6875 175.832031 C 116.988281 175.625 117.210938 175.300781 117.28125 174.914062 C 117.421875 174.136719 116.910156 173.390625 116.128906 173.246094 Z M 102.136719 170.683594 " fill-opacity="1" fill-rule="nonzero"/></g></g></g><g fill="#ffffff" fill-opacity="1"><g transform="translate(179.455099, 181.789322)"><g><path d="M 1.359375 -5.203125 C 1.671875 -4.984375 2.222656 -4.722656 3.015625 -4.421875 C 3.804688 -4.128906 4.738281 -3.984375 5.8125 -3.984375 C 6.738281 -3.984375 7.5 -4.144531 8.09375 -4.46875 C 8.695312 -4.789062 9.160156 -5.273438 9.484375 -5.921875 C 9.804688 -6.566406 10.019531 -7.398438 10.125 -8.421875 C 10.238281 -9.453125 10.296875 -10.6875 10.296875 -12.125 L 10.296875 -25.46875 L 15.25 -25.46875 L 15.25 -12.515625 C 15.25 -10.609375 15.140625 -8.863281 14.921875 -7.28125 C 14.703125 -5.707031 14.28125 -4.34375 13.65625 -3.1875 C 13.039062 -2.039062 12.101562 -1.15625 10.84375 -0.53125 C 9.59375 0.0820312 7.925781 0.390625 5.84375 0.390625 C 4.695312 0.390625 3.671875 0.257812 2.765625 0 C 1.859375 -0.257812 1.019531 -0.65625 0.25 -1.1875 Z M 1.359375 -5.203125 "/></g></g></g><g fill="#ffffff" fill-opacity="1"><g transform="translate(198.46642, 181.789322)"><g><path d="M 13.53125 0.171875 C 11.664062 0.171875 9.972656 -0.179688 8.453125 -0.890625 C 6.929688 -1.609375 5.625 -2.582031 4.53125 -3.8125 C 3.445312 -5.050781 2.601562 -6.441406 2 -7.984375 C 1.40625 -9.523438 1.109375 -11.109375 1.109375 -12.734375 C 1.109375 -14.429688 1.425781 -16.050781 2.0625 -17.59375 C 2.695312 -19.132812 3.566406 -20.507812 4.671875 -21.71875 C 5.785156 -22.925781 7.101562 -23.882812 8.625 -24.59375 C 10.144531 -25.300781 11.8125 -25.65625 13.625 -25.65625 C 15.46875 -25.65625 17.148438 -25.28125 18.671875 -24.53125 C 20.191406 -23.789062 21.488281 -22.800781 22.5625 -21.5625 C 23.644531 -20.320312 24.484375 -18.9375 25.078125 -17.40625 C 25.671875 -15.875 25.96875 -14.289062 25.96875 -12.65625 C 25.96875 -10.988281 25.65625 -9.382812 25.03125 -7.84375 C 24.414062 -6.300781 23.550781 -4.925781 22.4375 -3.71875 C 21.320312 -2.507812 20.003906 -1.554688 18.484375 -0.859375 C 16.972656 -0.171875 15.320312 0.171875 13.53125 0.171875 Z M 6.140625 -12.734375 C 6.140625 -11.628906 6.304688 -10.5625 6.640625 -9.53125 C 6.972656 -8.507812 7.457031 -7.597656 8.09375 -6.796875 C 8.726562 -5.992188 9.503906 -5.359375 10.421875 -4.890625 C 11.335938 -4.429688 12.382812 -4.203125 13.5625 -4.203125 C 14.757812 -4.203125 15.820312 -4.445312 16.75 -4.9375 C 17.6875 -5.425781 18.460938 -6.082031 19.078125 -6.90625 C 19.703125 -7.726562 20.175781 -8.644531 20.5 -9.65625 C 20.820312 -10.675781 20.984375 -11.703125 20.984375 -12.734375 C 20.984375 -13.835938 20.8125 -14.894531 20.46875 -15.90625 C 20.125 -16.925781 19.632812 -17.835938 19 -18.640625 C 18.363281 -19.441406 17.582031 -20.070312 16.65625 -20.53125 C 15.738281 -21 14.707031 -21.234375 13.5625 -21.234375 C 12.34375 -21.234375 11.269531 -20.988281 10.34375 -20.5 C 9.425781 -20.007812 8.65625 -19.359375 8.03125 -18.546875 C 7.414062 -17.734375 6.945312 -16.820312 6.625 -15.8125 C 6.300781 -14.8125 6.140625 -13.785156 6.140625 -12.734375 Z M 6.140625 -12.734375 "/></g></g></g><g fill="#ffffff" fill-opacity="1"><g transform="translate(226.983204, 181.789322)"><g><path d="M 24.078125 -25.46875 L 24.078125 0 L 19.15625 0 L 19.15625 -10.875 L 7.609375 -10.875 L 7.609375 0 L 2.65625 0 L 2.65625 -25.46875 L 7.609375 -25.46875 L 7.609375 -15.171875 L 19.15625 -15.171875 L 19.15625 -25.46875 Z M 24.078125 -25.46875 "/></g></g></g><g fill="#ffffff" fill-opacity="1"><g transform="translate(255.105431, 181.789322)"><g><path d="M 7.609375 -16.359375 L 7.609375 0 L 2.65625 0 L 2.65625 -25.46875 L 6.59375 -25.46875 L 19.765625 -8.6875 L 19.765625 -25.4375 L 24.71875 -25.4375 L 24.71875 0 L 20.59375 0 Z M 7.609375 -16.359375 "/></g></g></g><g fill="#ffffff" fill-opacity="1"><g transform="translate(283.880186, 181.789322)"><g/></g></g><g fill="#ffffff" fill-opacity="1"><g transform="translate(179.455099, 224.283693)"><g><path d="M 2.65625 0 L 2.65625 -25.46875 L 7.609375 -25.46875 L 7.609375 -4.34375 L 20.59375 -4.34375 L 20.59375 0 Z M 2.65625 0 "/></g></g></g><g fill="#ffffff" fill-opacity="1"><g transform="translate(201.802297, 224.283693)"><g><path d="M 2.65625 0 L 2.65625 -25.46875 L 7.609375 -25.46875 L 7.609375 0 Z M 2.65625 0 "/></g></g></g><g fill="#ffffff" fill-opacity="1"><g transform="translate(213.460323, 224.283693)"><g><path d="M 2.65625 0 L 2.65625 -25.46875 L 7.609375 -25.46875 L 7.609375 -4.34375 L 20.59375 -4.34375 L 20.59375 0 Z M 2.65625 0 "/></g></g></g><g fill="#ffffff" fill-opacity="1"><g transform="translate(235.807522, 224.283693)"><g><path d="M 2.65625 0 L 2.65625 -25.46875 L 7.609375 -25.46875 L 7.609375 -4.34375 L 20.59375 -4.34375 L 20.59375 0 Z M 2.65625 0 "/></g></g></g><g fill="#ffffff" fill-opacity="1"><g transform="translate(258.154717, 224.283693)"><g><path d="M 5.53125 -25.46875 L 11.796875 -13.484375 L 18.1875 -25.46875 L 23.53125 -25.46875 L 14.28125 -8.890625 L 14.28125 0 L 9.359375 0 L 9.359375 -8.96875 L 0.140625 -25.46875 Z M 5.53125 -25.46875 "/></g></g></g></svg>